<svg xmlns="http://www.w3.org/2000/svg"  viewBox="0 0 512 512"><path d="M300 7c41-1 80 14 111 42l2 1a158 158 0 0 1 48 129v7c-2 8 1 12 5 19l3 7 2 3 8 15 3 5 2 3 2 4 2 3 1 2c2 3 2 6 1 9-2 4-6 4-10 6a2860 2860 0 0 0-12 4c-12 4-12 4-20 13l-1 9v27l-1 12v3c0 10-1 17-8 24-5 3-10 4-16 4h-42v40l9 2c5 3 9 6 11 11 2 7 2 13 1 20l4 1c7 2 11 6 15 12 2 5 2 12 0 17-2 6-6 9-11 12l-8 1h-30a17100 17100 0 0 1-75 0h-5a1397225 1397225 0 0 0-8 0 27890 27890 0 0 0-148 0h-9c-3 0-3-1-5-3-1-5-1-5 1-8l7-1h29a5487 5487 0 0 1 85-1h43a43859 43859 0 0 0 105 0h9l6-2c2-3 2-4 2-8l-3-5-8-1h-9a2644 2644 0 0 0-18 0h-14a11064 11064 0 0 0-117 0h-4a404073 404073 0 0 0-52-1h-3a51856 51856 0 0 1-144 0 670 670 0 0 0-4 0H22c-3 0-5-1-7-3-1-4 0-6 2-9h10l9-1h65l-1-5c-2-2-2-2-5-2l-2-1c-4-1-4-1-7 1l-3 2c-4 2-6 3-10 2l-6-6-2-1a291 291 0 0 1-3-4 111 111 0 0 0-3-3l-5-8 4-9c3-4 3-4 3-8l-4-7v-2h-2c-9-1-9-1-13-4-2-4-1-10-1-15v-11c0-3 1-5 3-7l4-1 3-1h6l1-2v-3l1-3 2-5-3-4-4-9c1-4 3-6 7-9l7-8 8-6c5 1 7 3 10 6l5 1 2-1 4-1c2 0 2 0 3-2l2-11c1-3 1-3 4-5h25l5 1 2 7 1 3v6h3l6 2h5a598 598 0 0 0 5-4l5-2c4 1 5 3 8 6a497 497 0 0 0 3 3l4 3 2 2c2 3 4 5 5 9 0 4-1 5-3 8-3 3-3 3-3 8l3 6 1 3 6 2c7 1 7 1 9 4v19c0 10 0 10-2 13l-6 1c-5 1-5 1-9 4-1 4-3 8-1 12l4 6c2 3 1 5 0 9l-7 7-2 2a400 400 0 0 1-3 3l-4 4-5 3-7-4c-4-3-4-3-7-3l-5 2-5 1-1 6 63-1-1-3c-1-8 0-15 4-21 5-4 8-6 14-8h3a2829 2829 0 0 0 1-80c0-11 0-11-3-21l-13-8-4-3-2-2-1-1-2-1-7-7c-2-4-4-7-9-8a125 125 0 0 0-16 0 682 682 0 0 0-30 0 376 376 0 0 0-7 0l-4 1h-3c-5-1-7-4-9-8l-1-1-2-2-1-2a3846 3846 0 0 0-3-5l-1-2-8-10a3715 3715 0 0 1-15-22 826 826 0 0 0-8-11l-2-2a612 612 0 0 0-2-4l-3-6h-3a2016 2016 0 0 1-26 0h-2l-8-1c-2-3-1-6 0-9 3-2 4-2 7-2h8a992 992 0 0 1 5 0 648 648 0 0 0 9-1h8c5 0 6 1 10 3l2 3 1 2 2 1 1 2 1 2 2 2a730 730 0 0 1 25 37l9 11 1 3 2 2 1 1 3 5h52a13675 13675 0 0 0 128 0l1-2 1-2 1-2c2-5 6-7 11-9 8-2 14-2 22 2 4 4 7 8 9 13 1 8 1 15-4 22-4 5-10 8-16 8-7 0-12-1-18-5l-7-11h-45l12 19 5 6 6 9 1 3 2 3 2 2 2 3h9l4 1h12l1-3c2-7 7-10 13-13 6-2 12-1 18 1 5 3 9 6 12 11 2 9 2 16-3 24-3 5-7 8-13 9-7 1-14 1-20-4-4-4-6-7-8-13h-3a529 529 0 0 1-21 1h-4c-6-2-8-5-11-10l-2-2-5-8-2-3a5418 5418 0 0 1-15-24l-2-3-2-2a76 76 0 0 0-3-4l-1-4-41 1 18 15 3 2 3 2 8 7v104h134v-50c3-3 4-2 7-2h11a2994 2994 0 0 1 27-1h9l8-2c2-3 2-5 2-8v-15a2485 2485 0 0 0 0-24v-4c1-11 3-19 10-27 6-6 13-8 21-11l3-1 9-3c-7-13-13-26-21-38a721 721 0 0 1-3-6 204 204 0 0 0-2-4c-3-5-3-8-2-14A148 148 0 0 0 323 21c-17-1-35-1-52 3l-2 1c-14 3-26 9-38 16l-3 1-5 3h4a1177 1177 0 0 1 20 0c15 0 25 2 38 8l6 3 9 4c5 3 5 3 11 2l5-3a24 24 0 0 1 30 12c3 7 2 14-1 21-2 6-7 8-12 11-8 2-14 1-21-2-5-3-8-7-10-13V74h-2l-9-4c-18-9-34-12-55-12h-9a1334 1334 0 0 0-43-1 697 697 0 0 0-19 0h-11c-16-1-16-1-30 5-5 6-8 13-12 20-1 4-3 7-6 10l-1 3-4 6a2206 2206 0 0 0-10 15l-2 4-4 5-1 3-2 2-3 3a82 82 0 0 1-5 0h-9a2714 2714 0 0 1-25 0h-9l-4-1-1-6c1-3 1-3 4-5h43l1-2 4-8 2-3 2-3 3-5 4-6 8-13 6-9a992 992 0 0 0 7-11l2-3 2-4c3-4 5-6 9-8a61 61 0 0 1 8 0h2a598 598 0 0 1 53 0c8 0 14 0 21-5a473 473 0 0 0 5-5l9-6 2-1c24-14 49-21 77-22zm17 66c-2 3-3 4-3 8s1 6 4 9c3 2 5 2 8 2 4-1 5-3 8-6 2-3 1-6 1-9-2-4-5-6-9-7-4 0-6 1-9 3zm0 182c-2 3-2 6-1 10 2 3 3 5 6 6h9c4-3 6-5 6-10 0-4-1-5-3-8-7-4-11-4-17 2zm-203 37-1 3-1 4-1 3c-1 4-3 4-6 6h-2l-11 5c-5 1-7 0-11-2l-2-2-3-1-4 4-2 2-1 2 4 7c2 3 1 5 1 9l-4 8-2 7-2 4-12 3v14l6 1c6 1 6 1 7 4l1 4 5 10 1 9-4 6v4l5 5 2 2 1 1 1-1 2-1 2-2 6-2 4 1 2 1 2 1 3 1 11 6 1 6 2 6h12v-3c1-3 1-7 3-10 4-3 8-4 12-5a177 177 0 0 0 5-2c3-2 4-2 7-1l8 5c4-2 6-4 9-8 0-4-2-6-4-9-2-5 1-10 2-14l4-9c1-3 1-3 4-4l3-1c4 0 4 0 7-2v-13h-2c-9-2-9-2-12-5l-2-7a404 404 0 0 0-3-6c-2-4-3-7-1-12l5-8-8-8-7 4c-3 2-5 1-8 1l-8-4-7-2-4-2c-2-4-2-9-3-13h-12zm213 22c-2 3-2 6-1 10 2 3 3 5 7 7 4 0 6 0 9-2 4-2 4-2 5-6 0-5 0-7-4-11-6-4-11-3-16 2zM213 416v10c2 4 4 4 8 6h43a8411 8411 0 0 0 110 1h4c4-1 6-3 9-5 2-4 2-6 2-10-2-4-3-5-6-7h-15a3388 3388 0 0 0-18 0 7446 7446 0 0 1-124-1h-4c-4 1-6 3-9 6z"/><path d="M252 79c6 3 10 7 12 13 2 7 1 14-3 20s-9 10-16 11c-8 1-13-1-19-6-4-3-5-5-7-10l-73-1-2 4a140 140 0 0 1-3 4l-1 2-2 3-2 2a1557 1557 0 0 1-13 19l-1 2-2 2-5 8 79-1 4-8a24 24 0 0 1 36-1c6 7 6 14 5 23-1 6-5 9-10 13-6 3-11 4-18 3-7-2-12-6-16-13l-1-3-79-1a929 929 0 0 0 31 46h94l2-5a91 91 0 0 1 3-4l1-3 2-3 2-2 6-9 4-6 9-13a108 108 0 0 0 4-6c4-7 4-7 7-8h10a290 290 0 0 1 26 1l1-3c2-7 6-11 13-14a24 24 0 1 1 15 45c-8 1-14 0-21-4-4-3-5-7-7-12-10-2-22-4-32 1-10 8-16 21-22 32l-5 9-2 2-1 2a5344 5344 0 0 0 92 0h3l7-1 4-6c2-4 7-7 11-9 8-1 16-1 22 4 5 4 8 9 8 15 0 8 0 14-6 20a23 23 0 0 1-35-1l-4-8h-3a36950 36950 0 0 1-204 0h-3c-4 0-6-1-9-3l-4-6-2-2-1-2a3846 3846 0 0 0-3-5l-1-2-8-10-3-4-1-3-10-13-1-2a585 585 0 0 1-4-5 226 226 0 0 0-3-5v-8l5-8 3-4 2-3 9-12 4-5a7551 7551 0 0 0 10-14l1-2c8-12 8-12 12-13h77v-2c1-5 5-8 9-11 7-4 16-5 23-1zm-19 14c-2 4-2 6-2 10 1 3 2 4 5 6 3 1 6 2 10 1l6-7c0-5 0-8-3-11-7-4-10-4-16 1zm96 59c-2 3-1 6-1 9 2 3 3 5 7 7l9-1c3-3 5-5 5-9 0-5-2-7-5-10-6-3-11 0-15 4zm-122 1c-2 4-1 7 0 11l8 5c5 0 7-1 10-4 2-4 2-6 2-10-2-4-3-5-6-7-6-1-10 0-14 5zm163 58c-2 3-2 6-1 10l5 5 1 1c5 1 7 1 11-2 3-3 4-5 4-9 0-3-2-5-4-8-6-4-11-2-16 3zM178 492h36a26195 26195 0 0 1 57 0 9271 9271 0 0 1 24 0 3946 3946 0 0 0 32 0 644 644 0 0 1 7 0h4c3 0 5 1 7 3l1 4c-2 5-2 5-5 6h-43a26195 26195 0 0 1-113 0 644 644 0 0 1-7 0h-4c-3 0-5-1-7-3l-1-4c3-6 5-6 12-6zm-43-162c8 5 15 12 17 22s1 20-5 29c-5 7-12 12-21 14-9 1-17 0-25-6s-13-13-14-24 2-20 9-29c10-10 26-12 39-6zm-31 16c-4 6-6 12-5 20 2 7 5 11 12 15 5 2 11 3 17 1 6-4 10-8 12-15 1-7 1-14-4-20-5-5-9-8-16-8s-11 2-16 7zM371 52c9 5 16 11 23 18l3 3c23 22 36 53 38 85v2l-1 10-5 2c-4-1-5-2-7-5l-1-7c0-27-11-51-28-72l-2-2c-6-8-14-14-23-20l-3-2-2-2c-2-1-2-1-2-4 0-4 0-4 2-6h8zm76 380h10a1762 1762 0 0 1 25 0h10c2 0 3 1 5 3 1 5 1 5-1 8l-7 1h-10a1050 1050 0 0 1-25 0l-3 1h-6c-3-1-4-2-6-5 0-6 2-8 8-8zM72 152h7l3-1c4 1 5 2 7 5 0 4 0 5-3 8H61l-5-1c-2-3-1-5-1-8 5-5 11-3 17-3zM351 43c3 0 5 1 8 3l1 8-4 3c-5 0-9-2-14-4-2-3-1-6-1-9 4-3 5-2 10-1zm-28-8h3l7 4v7c-3 2-4 3-8 3l-3-1h-3l-5-3c-1-6-1-6 1-9 3-2 5-1 8-1zM101 463c2 2 2 2 2 5l-1 5c-3 2-6 1-9 1-2-3-2-5-2-9 2-4 6-3 10-2zm23-59 1 4v4c-3 2-4 2-8 2l-3-3 1-7c3-3 5-2 9 0zm-51-48 5 1 1 7-3 3h-6l-3-4c0-4 1-7 6-7zm51-46 1 4c0 4 0 4-2 6-3 1-5 0-8-1v-9c3-2 6-1 9 0zm32 79c2 2 2 2 2 6 0 3 0 3-2 5l-8-1c-2-3-1-6 0-9l8-1zm-66 0c2 2 2 2 2 6 0 3 0 3-2 5l-8-1c-2-3-1-6 0-9l8-1zm76-33 5 1c2 3 1 6 0 9l-8 1c-2-2-2-2-2-5 0-5 1-6 5-6zm-10-33c2 2 2 2 2 6 0 3 0 3-2 5l-8-1c-2-3-1-6 0-9l8-1zm-66 0c2 2 2 2 2 6 0 3 0 3-2 5l-8-1c-2-3-1-6 0-9l8-1z"/></svg>