<svg xmlns="http://www.w3.org/2000/svg" viewBox="0 0 512 512"><path d="M200 0a1319 1319 0 0 1 15 0h12a5009 5009 0 0 1 83 1h6c16 0 31 5 43 17l2 2 2 2c15 16 15 36 15 57a4075 4075 0 0 1 0 22 3608 3608 0 0 0 0 41c0 24 0 24-3 33l-1 2c-6 16-19 27-34 35-9 3-17 4-27 4v9h3a1047 1047 0 0 1 15 0 80 80 0 0 1 84 73 1906 1906 0 0 0 26 0l2-1c6 0 11-1 15-5 2-4 2-7 2-12v-11l1-10v-30l-6-1c-9-1-17-8-22-15-7-12-10-24-7-38 3-13 11-22 22-28 10-5 23-6 34-3 13 5 21 12 27 24 3 6 4 12 3 18v3c0 12-4 22-13 30-6 5-14 10-22 10v2a4626 4626 0 0 1 0 48c0 11-1 20-9 28-7 6-15 7-24 7h-29v2a11404 11404 0 0 1 0 86c1 16 0 32-8 46l-1 2c-3 7-7 12-12 17l-2 2a78 78 0 0 1-44 23h-6v15c0 3-1 3-3 5h-8c-2 0-2 0-5-4v-15H186v15c-3 4-3 4-5 4h-6c-2 0-3-1-5-3v-17h-2a78 78 0 0 1-63-44l-1-1c-8-16-8-32-7-49a4477 4477 0 0 0 0-26v-58h-3a1405 1405 0 0 1-18 0c-22 1-22 1-31-6-10-10-10-20-10-33v-4a2429 2429 0 0 1 0-42h-3c-10-2-19-9-25-17-7-11-8-22-7-35 2-12 10-21 19-28 11-6 23-8 35-6 13 4 22 11 29 22 5 11 6 23 3 34-5 13-13 22-24 28l-11 2a4455 4455 0 0 0 0 44l1 4c0 10 0 10 5 18 4 2 9 2 14 2h2l7 1h17v-2c2-20 12-40 28-53a84 84 0 0 1 63-18h11v-9h-2c-16 1-31-5-42-15a63 63 0 0 1-21-45v-13a7892 7892 0 0 0 0-6v-12a1994 1994 0 0 0 0-16 2008 2008 0 0 1-1-18 668 668 0 0 1 0-8v-2c1-4 1-6 3-8s3-3 6-3h2c3 1 4 3 6 6a52 52 0 0 1 0 8l1 2a465 465 0 0 1 0 28 3933 3933 0 0 0 0 31c0 15 2 30 13 41 11 10 24 14 39 14h25a4110 4110 0 0 0 81 0h3c14-1 26-5 36-14 10-10 13-23 13-37v-19a5408 5408 0 0 0 0-52c0-18 0-33-12-47-12-11-24-13-39-13h-4a2485 2485 0 0 0-104 0h-3c-14 0-26 4-36 14-5 6-9 14-12 21-1 3-3 3-5 4-4 0-5-1-8-3-2-2-3-4-2-7 3-15 13-28 25-36 13-8 25-11 39-11zm249 167c-5 6-8 12-8 19 0 8 3 15 8 20 7 6 13 8 22 8 8-1 14-5 20-11 5-7 6-14 5-23-3-8-7-14-14-18a453 453 0 0 0-5-2v12a546 546 0 0 0 0 4 572 572 0 0 1 0 6l-1 4c0 3-1 5-3 7h-6c-3 0-3-1-5-3l-1-7v-2a645 645 0 0 1 0-6v-15c-5 0-9 4-12 7zm-425-1c-6 7-8 14-8 23 0 7 3 13 9 19 7 5 14 7 23 6 8-2 14-6 19-12 4-8 5-16 3-24-2-7-8-13-14-17l-5-1v13a587 587 0 0 0 0 4 570 570 0 0 1 0 6l-1 4-1 5-6 1h-2l-4-2-2-9v-4a9006 9006 0 0 1 0-4v-14c-4 0-8 4-11 6zm191 50v9h82v-9h-82zm-86 46a69 69 0 0 0-16 48v4a1957 1957 0 0 0 0 38h4a72904 72904 0 0 1 97 0h2a26329 26329 0 0 0 125 1h7c3 0 3 1 5 3 0 4 1 6-1 9-4 3-8 3-12 3h-13a4146 4146 0 0 1-26 0h-18a13818 13818 0 0 1-69 0H113a3929 3929 0 0 0 0 44c0 18 7 33 19 46 15 14 32 18 52 18h6a2626 2626 0 0 0 82 0h24a3576 3576 0 0 1 34 1c20 0 36-6 51-20 13-14 19-31 18-50v-14a6384 6384 0 0 1 0-7v-18h-12l-4-1h-6l-7-1v-10l3-3h9l4-1h13a4221 4221 0 0 0 0-45c0-19-6-35-19-48-15-15-33-18-53-18a2777 2777 0 0 0-19 0h-15a9996 9996 0 0 0-110 0c-22 0-39 6-54 21z"/><path d="M209 129h3a1082 1082 0 0 1 72 0 1302 1302 0 0 0 18 0h3c8 0 15 2 21 8 4 6 7 12 6 19s-4 12-9 18c-7 4-13 4-21 4h-14a4472 4472 0 0 1-24 0 3482 3482 0 0 0-54 0h-3c-7 0-14-1-20-6-4-5-7-11-7-18 0-8 2-14 8-19 7-5 12-6 21-6zm-10 19c-2 2-3 3-3 6l4 7 8 1v-16c-7-1-7-1-9 2zm25-2v16h24v-16h-24zm40 0v16h24v-16h-24zm40 0v16c6 1 6 1 9-2l3-7-3-5c-2-3-2-3-9-2zM165 395h26a10771 10771 0 0 1 66 0h3c9 0 17 1 24 8 5 6 7 12 6 19s-4 12-9 17c-7 5-13 5-21 5h-22a4397 4397 0 0 1-59 1 915 915 0 0 1-11 0h-3c-7 0-14-2-20-8-5-5-7-11-7-18 1-7 3-13 8-18 6-4 11-6 19-6zm-9 19c-1 4-2 5-1 9 2 2 3 4 6 5h30a10534 10534 0 0 0 66 0h3c5 0 8 0 12-3l2-6c-1-4-2-5-5-7l-10-1h-22a3168 3168 0 0 0-57 0 861 861 0 0 0-11 0h-3c-5 0-5 0-10 3zm7-141h23a11366 11366 0 0 1 73 0l3-1c8 1 14 2 21 7 5 7 8 12 7 21-1 8-4 13-10 17-7 5-14 5-22 5h-14a4206 4206 0 0 1-22 0 3735 3735 0 0 0-52 0h-3c-8 0-14-1-20-5-5-5-9-11-9-19s2-13 8-19c5-4 10-6 17-6zm-8 21v7c2 3 4 4 8 5h30a9874 9874 0 0 0 63 0h3c5 0 9 0 13-3 2-3 2-4 2-7l-4-6-7-1h-23a9408 9408 0 0 0-52-1 952 952 0 0 1-7 0h-13c-6 0-9 1-13 6zM413 1h3c28 2 53 15 72 36 15 18 24 40 24 63l1 3c0 4 0 5-3 9-4 1-5 2-9 1-2-2-4-3-5-6a358 358 0 0 1-1-6c-1-20-8-38-21-53l-2-3a81 81 0 0 0-59-26c-4-1-7-1-11-4l-1-4V9c1-7 6-8 12-8zM98 2h3c4-1 5-1 9 2l1 7v2c-1 3-3 4-6 5l-9 1c-19 2-36 8-50 21l-3 2a81 81 0 0 0-26 59c-1 4-1 7-4 11-3 2-6 1-9 1l-4-4V98c0-27 14-52 33-70C51 12 74 2 98 2zm237 49c6 6 9 12 10 20 1 9-2 17-7 24-5 6-12 10-20 10-9 0-17-1-24-7s-10-14-10-23 3-16 9-22c12-11 28-12 42-2zm-29 12c-3 3-5 5-6 9 0 6 2 10 6 14 4 2 6 3 11 3 4-1 7-3 9-6 3-4 4-7 3-12-2-4-4-7-8-9-6-2-10-2-15 1zm-92-14c7 5 13 12 14 21 1 10-2 18-8 26-6 6-14 9-23 9s-16-3-22-9c-7-8-9-17-8-27 1-8 5-14 11-19 12-7 24-8 36-1zm-25 14c-4 4-6 7-6 12 0 4 2 7 4 10 4 3 7 4 12 4 5-1 8-3 11-7 2-5 2-8 1-13-3-4-5-6-10-8-5-1-8 0-12 2zm177 332c5 5 10 11 11 18 1 11 0 19-7 27-6 6-12 10-20 10-9 1-16-1-23-7s-11-13-11-22c0-8 2-16 8-22 12-11 28-14 42-4zm-30 15c-3 4-4 9-3 14 2 4 4 7 8 9 5 1 9 2 13-1s5-4 7-9c1-6 0-9-4-13-2-3-4-4-7-4-6-1-10 0-14 4zm30-137c6 5 10 12 11 20 1 10-1 18-8 26-7 7-15 9-24 9-10-1-17-5-24-13-5-7-6-15-4-24s7-15 14-20c11-6 24-5 35 2zm-28 13c-4 5-5 8-5 14 0 3 1 5 4 8 3 2 6 4 10 4 6-1 9-3 12-7 2-4 2-7 2-11-2-6-5-8-10-10s-9 0-13 2z"/><path d="M425 34c19 4 35 15 45 31 7 11 11 23 11 37l1 4-3 5c-4 2-5 3-9 2-3-3-5-4-6-9v-3c-1-15-8-28-19-38-10-9-22-13-35-13l-7-3-3-6 3-6c6-4 14-2 22-1zm-316 1c2 4 3 5 2 9-3 4-5 5-9 6l-5 1c-12 1-22 5-31 13l-2 2a52 52 0 0 0-16 36c0 4-1 6-3 9l-6 3c-4-1-5-2-8-5-3-15 3-31 11-44 12-17 28-28 48-32 14-1 14-1 19 2z"/><path d="M418 65c11 2 19 9 25 18 5 6 7 14 7 22-1 3-2 6-5 8-4 0-6 1-9-2-2-3-3-5-3-8-2-8-4-13-10-18-5-3-11-3-16-4l-5-3V68c4-5 10-4 16-3zm-311 0c2 2 4 4 4 7s0 5-3 8l-8 2c-7 1-11 3-15 8s-5 10-6 16c-1 3-2 5-5 7-4 1-6 1-9-2-3-4-3-8-2-13 2-11 7-20 16-27 8-5 18-8 28-6z"/></svg>