<svg xmlns="http://www.w3.org/2000/svg" viewBox="0 0 512 512">
  <path d="M242 36a99 99 0 0 1 8 7l4 4c4 0 4 0 6-2l2-2c7-7 16-12 26-16l3-1a74 74 0 0 1 91 49l1 6h2c20-4 40 0 57 11 15 11 26 26 30 44 2 17 1 34-7 49l2 1c11 10 20 23 21 38 1 11 1 21-4 31l-1 3c-8 14-19 23-34 29-7 2-14 1-21 1h-4a1252 1252 0 0 1-32 1 369 369 0 0 1-6 0h-3c-4-1-5-2-7-5v-4l-1-2c1-3 3-4 5-6l5-1h10a1331 1331 0 0 1 28 0c14 0 26-2 37-12 9-9 11-20 10-32 0-11-6-18-14-26-3 1-6 3-8 6a70 70 0 0 1-52 17c-11 0-19-5-27-13-9-10-10-21-9-34 1-11 7-19 15-26 11-7 22-8 34-7 5 1 10 3 14 6 1 4 2 5 1 9-1 3-1 3-4 5-4 1-8 1-11-1-6-2-12-2-17 0-6 2-10 7-13 12a24 24 0 0 0 15 31c15 1 28-2 40-11l2-1c9-7 16-21 18-32 2-17-1-30-11-44l-1-2c-7-9-21-16-32-18-9-1-17-1-26 1v2c-1 11-6 20-14 27-11 8-22 9-35 8-11-2-19-9-25-18-7-10-8-23-5-34 1-5 3-9 7-12h7c3 0 3 1 5 3 1 5 1 8-1 13-2 6-2 13 1 18 3 6 8 10 14 12 7 1 14 1 20-4 5-5 8-9 8-16 0-14-3-24-11-36l-1-2c-7-9-21-16-32-18-18-2-33 2-47 13-6 6-10 11-11 20v8a954 954 0 0 1 0 4 963 963 0 0 0 0 11 1621 1621 0 0 1 0 24v7c0 4-1 5-4 7h-8c-3-2-4-4-5-8a131 131 0 0 1 0-6v-16a1036 1036 0 0 1 0-24 282 282 0 0 1 0-6c0-8-1-12-7-18a58 58 0 0 0-42-16c-13 0-22 4-32 11l-2 1c-9 7-16 21-18 32-1 7-1 16 3 22s9 10 16 10c8 0 13 0 19-6 5-6 6-11 6-19 0-3 0-5-2-7V75l5-4c5 0 6 0 10 3l2 4 1 2c4 9 3 22 0 31-4 11-12 19-23 23-10 4-23 4-33-1-10-6-18-14-21-25l-1-9c-15-3-31-2-45 6a247 247 0 0 0-5 4l-2 1c-9 7-16 21-18 32-2 17 1 30 11 44l1 2c7 9 21 16 32 18 7 1 16 1 22-3s10-9 10-16c0-8 0-13-6-19-5-4-9-6-16-6h-3l-8 2h-9c-3-3-4-4-4-8s1-5 4-8c10-5 22-5 32-3a40 40 0 0 1 26 54c-4 11-12 19-23 23a68 68 0 0 1-69-21c-7 3-11 9-14 15-4 11-4 23 1 33s13 16 24 20c8 2 15 2 23 2h7a1810 1810 0 0 0 22 0h9c3 1 4 3 6 5l1 4v2c-1 3-3 4-5 6l-6 1h-21a867 867 0 0 0-11 0h-8a736 736 0 0 0-6 0c-14-1-29-5-39-15a59 59 0 0 1-17-42v-3c0-13 4-23 12-33l1-2 10-9-1-2-1-3-2-3c-6-18-5-39 3-56 9-19 25-31 45-39 11-4 26-4 38-1v-2c4-18 15-32 29-43 25-16 59-17 84 0z"/>
  <path d="M228 152c3 2 4 3 4 7v25h15v-15c0-6 0-11 3-16 3-2 7-2 10-1 3 2 4 3 4 7v25h15v-15c0-6 0-11 3-16 3-2 7-2 10-1 3 2 4 3 4 7v15a902 902 0 0 1 0 10h3c14-1 14-1 20 4 5 5 9 9 9 17a267 267 0 0 1 0 4v7h25c4 0 5 1 7 4l1 4v2c-1 3-3 4-5 6h-28v16h25c4 0 5 1 7 4l1 4v2c-1 3-3 4-5 6h-28v16h25c4 0 5 1 7 4l1 4v2c-1 3-3 4-5 6h-18a902 902 0 0 1-10 0v3c1 14 1 14-4 20-5 5-9 9-17 9a267 267 0 0 1-4 0h-7v25c0 4-1 5-4 7h-8c-3-2-4-4-5-8v-24h-15v25c0 4-1 5-4 7h-8c-3-2-4-4-5-8v-24h-15v25c0 4-1 5-4 7h-8c-3-2-4-4-5-8v-24h-3c-13 1-13 1-19-4-5-5-9-9-9-17v-11h-25c-4 0-5-1-7-4l-1-4v-2c1-3 3-4 5-6h28v-16h-25c-4 0-5-1-7-4l-1-4v-2c1-3 3-4 5-6h28v-16h-25c-4 0-5-1-7-4l-1-4v-2c1-3 3-4 5-6h28v-3c-1-14-1-14 4-20 5-5 9-9 17-9h10v-15c0-6 0-11 3-16 3-2 7-2 10-1zm-26 51-1 6v40a3931 3931 0 0 1 0 18 2880 2880 0 0 0 0 30l-1 3c0 5 0 5 3 10 4 3 9 2 14 2h18a8589 8589 0 0 0 60 0h2c5 0 9 0 13-3 3-4 2-9 2-14v-19a4983 4983 0 0 0 0-59v-2c0-5 0-9-3-13-4-3-9-2-14-2h-19a4983 4983 0 0 0-59 0h-2c-5 0-9 0-13 3zm-40 105c3 0 4 2 6 4l1 12v22c0 5-1 8-3 13l-6 1h-40v25l6 2c5 3 9 8 10 14 1 8 1 16-4 22-5 5-9 9-16 9-9 0-15 0-21-6-6-7-7-12-7-22 0-7 3-10 8-15l6-4v-3a1619 1619 0 0 1 0-22l1-2c0-5 1-9 3-13l6-1h40v-3a1204 1204 0 0 1 0-15 466 466 0 0 1 0-7v-4c0-3 0-3 2-5 3-3 5-3 8-2zm-55 95c-2 3-3 4-2 8l4 4c4 1 5 0 8-2 2-3 3-4 2-8l-4-4c-4-1-5 0-8 2zm183-28h4a2868 2868 0 0 1 48 0h3c4 1 5 2 7 5l1 10v7a9880 9880 0 0 0 0 31v4l1 9 6 4 3 3 2 2c4 6 4 14 3 21-2 7-6 11-12 15-6 3-15 3-21 1s-11-7-14-13c-2-7-2-15 1-21 2-5 7-9 12-12l1-49h-22a1198 1198 0 0 0-17 0h-10c-3 0-4-2-6-4v-4l-1-2c2-6 6-7 11-7zm49 84c-2 3-3 4-2 8l4 4c4 1 5 0 8-2 2-3 3-4 2-8l-4-4c-4-1-5 0-8 2zm-169-83h10a3734 3734 0 0 1 36 0 404 404 0 0 1 6 0h3c4 0 5 1 7 4l1 4v2c-1 3-3 4-5 6h-15a1362 1362 0 0 1-11 0 5963 5963 0 0 0-25 0 1788 1788 0 0 0 0 38v3l1 8 6 4 3 3 2 2c4 6 4 14 3 21-2 7-6 11-12 15-6 3-15 3-21 1s-11-7-14-13c-2-7-2-15 1-21 2-5 7-9 12-12v-2a4365 4365 0 0 1 0-42l1-4c0-6 0-11 3-16l8-1zm-7 83c-2 3-3 4-2 8l4 4c4 1 5 0 8-2 2-3 3-4 2-8l-4-4c-4-1-5 0-8 2zm189-151 2-1c3 1 4 3 6 5v10a526 526 0 0 1 0 6 2321 2321 0 0 0 0 16h19a918 918 0 0 0 6 0h12c6 0 6 0 10 2 2 4 2 8 2 13v5a458 458 0 0 1 0 14v2l1 5 6 4 3 3 2 2c4 6 4 14 3 21-2 7-6 11-12 15-6 3-15 3-21 1s-11-7-14-13c-2-7-2-15 1-21s8-10 14-12v-25h-9a3447 3447 0 0 1-25 0h-3l-10-1c-2-4-2-8-2-13v-3a619 619 0 0 1 0-21v-3l3-10 6-2zm43 95c-2 3-3 4-2 8l4 4c4 1 5 0 8-2 2-3 3-4 2-8l-4-4c-4-1-5 0-8 2z"/>
  <path d="M387 303h2a509 509 0 0 1 7 0h5a1346 1346 0 0 1 44 0h4c4 1 5 2 7 5 2 5 1 10 1 15l1 6 6 4 3 3 2 2c4 6 4 14 3 21-2 7-6 11-12 15-6 3-15 3-21 1s-11-7-14-13c-2-7-2-15 1-21s8-10 14-12v-9h-2a3590 3590 0 0 1-42 0h-13c-4 0-5-1-7-4v-4l-1-2c2-6 7-7 12-7zm56 44c-2 3-3 4-2 8l4 4c4 1 5 0 8-2 2-3 3-4 2-8l-4-4c-4-1-5 0-8 2zM234 223h10a1011 1011 0 0 1 28 0h9c4 1 5 2 7 5l1 9v35c0 6 0 10-3 15l-7 1h-11a3400 3400 0 0 1-27 0h-10c-4 0-5-1-7-4l-1-6v-10a1011 1011 0 0 1 0-28v-9c2-6 5-7 11-8zm7 17v32h31v-32h-31zM67 303h2a509 509 0 0 1 7 0h5a1346 1346 0 0 1 44 0h4c4 1 5 2 7 5l1 4v2c-1 3-3 4-5 6h-18a1278 1278 0 0 1-10 0H72v9l3 1c5 2 9 6 12 11 2 7 2 16-1 22s-8 11-15 13c-8 1-16 1-22-4-5-5-9-9-9-16 0-9 0-15 6-21 3-3 6-5 10-6v-19c1-6 5-7 11-7zm-8 44c-2 3-3 4-2 8l4 4c4 1 5 0 8-2 2-3 3-4 2-8l-4-4c-4-1-5 0-8 2zm201 29c3 2 4 3 4 7v11a1391 1391 0 0 0 0 15v32l3 1c6 2 9 6 12 11 2 7 2 16 0 22-4 6-9 11-16 13-8 1-16 1-22-4-5-5-9-9-9-16 0-13 0-13 4-19l10-8v-2a4365 4365 0 0 1 0-42l1-4c0-6 0-11 3-16 3-2 7-2 10-1zm-9 83c-2 3-3 4-2 8l4 4c4 1 5 0 8-2 2-3 3-4 2-8l-4-4c-4-1-5 0-8 2zm153-3 4 4c1 4 1 7-1 11-4 2-7 2-11 1l-4-4c-1-4-1-7 2-10s6-3 10-2zm-288 0 4 4c1 4 1 7-1 11-4 2-7 2-11 1l-4-4c-1-4-1-7 2-10s6-3 10-2zM404 48l4 4c1 4 1 7-1 11-4 2-7 2-11 1l-4-4c-1-4-1-7 2-10s6-3 10-2zm-288 0 4 4c1 4 1 7-1 11-4 2-7 2-11 1l-4-4c-1-4-1-7 2-10s6-3 10-2z"/>
</svg>
